<svg width="50" height="50" viewBox="0 0 50 50" fill="none" xmlns="http://www.w3.org/2000/svg">
<path d="M6.25 44.2857H15.625V27.1429H34.375V44.2857H43.75V18.5714L25 5.71429L6.25 18.5714V44.2857ZM6.25 50C4.53125 50 3.06042 49.441 1.8375 48.3229C0.612499 47.2029 0 45.8571 0 44.2857V18.5714C0 17.6667 0.221874 16.8095 0.665624 16C1.10729 15.1905 1.71875 14.5238 2.5 14L21.25 1.14286C21.8229 0.761905 22.4219 0.47619 23.0469 0.285714C23.6719 0.0952378 24.3229 0 25 0C25.6771 0 26.3281 0.0952378 26.9531 0.285714C27.5781 0.47619 28.1771 0.761905 28.75 1.14286L47.5 14C48.2813 14.5238 48.8937 15.1905 49.3375 16C49.7792 16.8095 50 17.6667 50 18.5714V44.2857C50 45.8571 49.3885 47.2029 48.1656 48.3229C46.9406 49.441 45.4688 50 43.75 50H28.125V32.8571H21.875V50H6.25Z" fill="black"/>
</svg>
