<svg width="50" height="50" viewBox="0 0 50 50" fill="none" xmlns="http://www.w3.org/2000/svg">
<path d="M29.8099 50H20.1901C19.5487 50 18.9929 49.7917 18.5226 49.375C18.0523 48.9583 17.7744 48.4375 17.6889 47.8125L16.9193 42C16.3635 41.7917 15.8402 41.5417 15.3493 41.25C14.8568 40.9583 14.3754 40.6458 13.9051 40.3125L8.32556 42.5625C7.72699 42.7708 7.12842 42.7917 6.52985 42.625C5.93128 42.4583 5.46098 42.1042 5.11894 41.5625L0.373134 33.5C0.0310945 32.9583 -0.0757929 32.375 0.052472 31.75C0.180737 31.125 0.501399 30.625 1.01446 30.25L5.82439 26.6875C5.78164 26.3958 5.76026 26.1142 5.76026 25.8425V24.155C5.76026 23.885 5.78164 23.6042 5.82439 23.3125L1.01446 19.75C0.501399 19.375 0.180737 18.875 0.052472 18.25C-0.0757929 17.625 0.0310945 17.0417 0.373134 16.5L5.11894 8.4375C5.41822 7.85417 5.87741 7.48917 6.4965 7.3425C7.1173 7.1975 7.72699 7.22917 8.32556 7.4375L13.9051 9.6875C14.3754 9.35417 14.8671 9.04167 15.3801 8.75C15.8932 8.45833 16.4062 8.20833 16.9193 8L17.6889 2.1875C17.7744 1.5625 18.0523 1.04167 18.5226 0.625C18.9929 0.208333 19.5487 0 20.1901 0H29.8099C30.4513 0 31.0071 0.208333 31.4774 0.625C31.9477 1.04167 32.2256 1.5625 32.3111 2.1875L33.0807 8C33.6365 8.20833 34.1607 8.45833 34.6532 8.75C35.144 9.04167 35.6246 9.35417 36.0949 9.6875L41.6744 7.4375C42.273 7.22917 42.8716 7.20833 43.4701 7.375C44.0687 7.54167 44.539 7.89583 44.8811 8.4375L49.6269 16.5C49.9689 17.0417 50.0758 17.625 49.9475 18.25C49.8193 18.875 49.4986 19.375 48.9855 19.75L44.1756 23.3125C44.2184 23.6042 44.2397 23.885 44.2397 24.155V25.8425C44.2397 26.1142 44.197 26.3958 44.1115 26.6875L48.9214 30.25C49.4345 30.625 49.7551 31.125 49.8834 31.75C50.0117 32.375 49.9048 32.9583 49.5627 33.5L44.8169 41.5C44.4749 42.0417 43.9943 42.4067 43.3752 42.595C42.7544 42.7817 42.1447 42.7708 41.5462 42.5625L36.0949 40.3125C35.6246 40.6458 35.1329 40.9583 34.6199 41.25C34.1068 41.5417 33.5937 41.7917 33.0807 42L32.3111 47.8125C32.2256 48.4375 31.9477 48.9583 31.4774 49.375C31.0071 49.7917 30.4513 50 29.8099 50ZM25.1283 33.75C27.6081 33.75 29.7244 32.8958 31.4774 31.1875C33.2303 29.4792 34.1068 27.4167 34.1068 25C34.1068 22.5833 33.2303 20.5208 31.4774 18.8125C29.7244 17.1042 27.6081 16.25 25.1283 16.25C22.6057 16.25 20.4782 17.1042 18.7458 18.8125C17.0151 20.5208 16.1497 22.5833 16.1497 25C16.1497 27.4167 17.0151 29.4792 18.7458 31.1875C20.4782 32.8958 22.6057 33.75 25.1283 33.75ZM25.1283 28.75C24.0594 28.75 23.1513 28.385 22.4039 27.655C21.6549 26.9267 21.2803 26.0417 21.2803 25C21.2803 23.9583 21.6549 23.0733 22.4039 22.345C23.1513 21.615 24.0594 21.25 25.1283 21.25C26.1971 21.25 27.1061 21.615 27.8552 22.345C28.6025 23.0733 28.9762 23.9583 28.9762 25C28.9762 26.0417 28.6025 26.9267 27.8552 27.655C27.1061 28.385 26.1971 28.75 25.1283 28.75ZM22.4347 45H27.5012L28.399 38.375C29.7244 38.0417 30.9541 37.5517 32.0879 36.905C33.2201 36.26 34.2565 35.4792 35.1971 34.5625L41.5462 37.125L44.0473 32.875L38.5319 28.8125C38.7457 28.2292 38.8954 27.6142 38.9809 26.9675C39.0664 26.3225 39.1091 25.6667 39.1091 25C39.1091 24.3333 39.0664 23.6767 38.9809 23.03C38.8954 22.385 38.7457 21.7708 38.5319 21.1875L44.0473 17.125L41.5462 12.875L35.1971 15.5C34.2565 14.5417 33.2201 13.7392 32.0879 13.0925C30.9541 12.4475 29.7244 11.9583 28.399 11.625L27.5653 5H22.4988L21.601 11.625C20.2756 11.9583 19.0468 12.4475 17.9146 13.0925C16.7808 13.7392 15.7435 14.5208 14.8029 15.4375L8.45382 12.875L5.95266 17.125L11.468 21.125C11.2543 21.75 11.1046 22.375 11.0191 23C10.9336 23.625 10.8909 24.2917 10.8909 25C10.8909 25.6667 10.9336 26.3125 11.0191 26.9375C11.1046 27.5625 11.2543 28.1875 11.468 28.8125L5.95266 32.875L8.45382 37.125L14.8029 34.5C15.7435 35.4583 16.7808 36.26 17.9146 36.905C19.0468 37.5517 20.2756 38.0417 21.601 38.375L22.4347 45Z" fill="black"/>
</svg>
